<?xml version="1.0" standalone="no"?>
<!DOCTYPE svg PUBLIC "-//W3C//DTD SVG 20010904//EN"
 "http://www.w3.org/TR/2001/REC-SVG-20010904/DTD/svg10.dtd">
<svg version="1.0" xmlns="http://www.w3.org/2000/svg"
 width="640.000000pt" height="640.000000pt" viewBox="0 0 640.000000 640.000000"
 preserveAspectRatio="xMidYMid meet">
<metadata>
Created by potrace 1.11, written by Peter Selinger 2001-2013
</metadata>
<g transform="translate(0.000000,640.000000) scale(0.100000,-0.100000)"
fill="#000000" stroke="none">
<path d="M3015 5994 c-16 -2 -77 -9 -135 -15 -452 -47 -925 -229 -1304 -499
-185 -132 -409 -344 -556 -525 -99 -121 -238 -336 -311 -480 -195 -381 -292
-760 -306 -1190 -21 -671 178 -1276 602 -1830 74 -96 339 -368 443 -453 389
-320 853 -529 1347 -607 162 -26 540 -31 715 -10 483 57 878 209 1280 493 129
91 200 152 354 302 147 143 238 250 350 409 256 365 415 771 483 1226 25 170
25 591 0 760 -105 708 -443 1318 -982 1772 -55 46 -163 126 -240 178 -361 243
-748 389 -1194 451 -102 14 -484 27 -546 18z m-403 -1841 l128 -128 -412 -412
-413 -413 95 -97 c52 -54 237 -241 410 -416 l315 -317 -128 -127 -127 -128
-542 543 -543 542 540 540 c297 297 542 540 545 540 3 0 62 -57 132 -127z
m1851 -1495 l-543 -543 -127 128 -128 127 415 415 415 415 -413 413 -412 412
127 128 128 127 540 -540 540 -540 -542 -542z"/>
</g>
</svg>
